<svg id="6c224683-3c63-42d8-bc53-763a3fffa5cd" data-name="Calque 2" xmlns="http://www.w3.org/2000/svg" viewBox="0 0 100 100"><title>SBC_picto_4</title><path d="M40.28,13.76h-29a2.22,2.22,0,0,1-2.19-2l-.2-2a2,2,0,0,1,2-2.18H40.69a2,2,0,0,1,1.48.65,2,2,0,0,1,.5,1.53l-.21,2A2.22,2.22,0,0,1,40.28,13.76ZM10.94,9.63l.2,1.95a.2.2,0,0,0,.15.13h29s.14-.08.14-.13h0l.2-1.95Z"/><rect x="16.39" y="85.36" width="18.91" height="1.58"/><path d="M28.06,88.54h-.19l-.42-.05a14.72,14.72,0,0,0-3.25,0,4.12,4.12,0,0,1-.42,0,1.14,1.14,0,0,1-1.38-1.24V87A3.64,3.64,0,0,1,23,85a3.32,3.32,0,0,1,2.78-1.3A3.35,3.35,0,0,1,28.62,85a3.5,3.5,0,0,1,.63,2v.29a1.32,1.32,0,0,1-.38,1A1.21,1.21,0,0,1,28.06,88.54Zm-2.13-1.85a13.06,13.06,0,0,1,1.6.1,1.68,1.68,0,0,0-.28-.81,1.81,1.81,0,0,0-1.42-.62h0a1.82,1.82,0,0,0-1.41.61,1.57,1.57,0,0,0-.29.82,12.66,12.66,0,0,1,1.71-.1Z"/><path d="M89.3,61.92H61.81V60.13c0-.82.93-2.76,2.39-2.76H86.91c1.46,0,2.39,1.94,2.39,2.76Zm-25.4-2H87.21a1.83,1.83,0,0,0-.38-.55H64.28A1.76,1.76,0,0,0,63.9,59.92Z"/><path d="M85.41,59.37H64.56l.23-1.18a9.87,9.87,0,0,1,5.89-6.87,4,4,0,0,1,4,.55c5.81,5,9.52,2.29,9.67,2.17,1.11-.87,1.84-.71,2.27-.43a1.54,1.54,0,0,1,.47,1.86,20.1,20.1,0,0,1-1.43,3.37Zm-18.28-2H84.19c.23-.45.42-.87.56-1.23-1.71.84-5.87,2-11.34-2.75a2,2,0,0,0-2.07-.18A8,8,0,0,0,67.13,57.37Zm18.86-2Z"/><path d="M88.48,91.79H62.63a2.71,2.71,0,0,1-2.71-2.71V62.63a2.71,2.71,0,0,1,2.71-2.71H88.48a2.72,2.72,0,0,1,2.71,2.71V89.08A2.71,2.71,0,0,1,88.48,91.79ZM62.63,61.92a.72.72,0,0,0-.71.71V89.08a.71.71,0,0,0,.71.71H88.48a.72.72,0,0,0,.71-.71V62.63a.73.73,0,0,0-.71-.71Z"/><path d="M53.49,16.1a13,13,0,0,1,5.19,1,.53.53,0,0,1,.3.43c0,.5,0,.85-.06,1.35a.18.18,0,0,1-.19.18l-.13,0a12.7,12.7,0,0,0-5.06-1,30.78,30.78,0,0,0-4.94.51V21.8c0,.52-.22.94-.5.94H46.69v3.41h.88c.2,0,.36.3.36.67,0,0,0,2-.07,3.2H42.72c0-1.23-.08-3.2-.08-3.2,0-.37.17-.67.37-.67h.89V22.74H42.48c-.28,0-.51-.42-.51-.94V19.42h-.44a12.78,12.78,0,0,1-5.07-1,.5.5,0,0,1-.3-.43c0-.49,0-1,.05-1.49a.19.19,0,0,1,.19-.18.35.35,0,0,1,.14,0,13.17,13.17,0,0,0,5.19,1c3.9,0,7.85-1.27,11.76-1.27m0-2a39.35,39.35,0,0,0-6.2.66,35.77,35.77,0,0,1-5.56.61,10.94,10.94,0,0,1-4.41-.82,2.22,2.22,0,0,0-.91-.19,2.18,2.18,0,0,0-2.19,2.11v.16L34.16,18a2.53,2.53,0,0,0,1.52,2.35A14.36,14.36,0,0,0,40,21.36v.44a2.86,2.86,0,0,0,1.7,2.79,2.74,2.74,0,0,0-1,2.23v.06s.05,1.95.07,3.16l0,2h9.1l0-2c0-1.21.07-3.16.07-3.16v-.06a2.73,2.73,0,0,0-1-2.23A2.85,2.85,0,0,0,50.6,21.8V20.28a22.8,22.8,0,0,1,2.94-.23,10.92,10.92,0,0,1,4.28.8,2.25,2.25,0,0,0,.91.19,2.18,2.18,0,0,0,2.19-2.11l0-.66,0-.68a2.53,2.53,0,0,0-1.52-2.35,15.13,15.13,0,0,0-6-1.14Z"/><path d="M32.63,82.51H15.17a2.17,2.17,0,0,1-2.13-2L9.38,13.86a2,2,0,0,1,2-2.13H40.25a2,2,0,0,1,2,2.16l-.12,1.46a2.06,2.06,0,0,1-2.27,1.87,17.31,17.31,0,0,1-2.65-.54v.64c0,.5,0,1,0,1.35a13.46,13.46,0,0,0,2.77.62,2.17,2.17,0,0,1,1.91,2.24l-.46,8.28c0,.62-.07,1.19-.08,1.26-.1.74-.78,1-1.82,1.22-.46.11-11.46,3-10.43,17,.88,11.93,5.46,29.55,5.5,29.73a6.41,6.41,0,0,1,.22,2A2,2,0,0,1,32.63,82.51Zm7.61-68.79H11.4L15,80.38a.15.15,0,0,0,.13.13H32.63l.16,0a6.48,6.48,0,0,0-.16-1c-.05-.17-4.67-18-5.56-30.08-1.16-15.68,11.82-19,12-19.06l.34-.09c0-.16,0-.35,0-.55l.46-8.28a.16.16,0,0,0-.12-.14,15,15,0,0,1-3.66-.89h0A1.5,1.5,0,0,1,35.16,19c0-.25,0-1,0-1.7s0-1.54,0-1.79a1.21,1.21,0,0,1,.55-1,1.24,1.24,0,0,1,1.17-.07,13.19,13.19,0,0,0,3.13.76Zm-3.08,5.35Zm-.31-.53Zm-.7-2.23Z"/><path d="M52.42,92.4H37.77A2.76,2.76,0,0,1,35.14,90c-.6-3.28-1.57-7-2.61-10.91C30.41,71.05,27.77,61,27.07,49.39c-.41-6.69,1-11.75,4.07-15,4.27-4.53,10.58-4.51,13.62-4.51h.6c3.06,0,9.39,0,13.69,4.53,3.12,3.3,4.51,8.35,4.13,15C62.55,60.45,60,70.27,57.7,78.94c-1.05,4-2,7.82-2.65,11.11A2.76,2.76,0,0,1,52.42,92.4Zm-8-60.57c-2.86,0-8.28.14-11.81,3.88-2.72,2.88-3.91,7.44-3.54,13.56.7,11.41,3.2,20.94,5.41,29.35,1,4,2,7.7,2.64,11.07h0c.06.34.31.71.66.71H52.42c.35,0,.6-.37.66-.71.62-3.37,1.63-7.2,2.69-11.26,2.25-8.57,4.79-18.3,5.41-29.16.35-6.1-.85-10.66-3.58-13.54-3.71-3.92-9.48-3.9-12.23-3.9h-1Z"/><path d="M34.48,91.2H17.17c-1,0-1.65-1-1.65-2.42l-.23-8.38H34.94l.19.75c.38,1.46.74,2.87,1.06,4.23l0,.13-.1,3.3C36.13,90.21,35.45,91.2,34.48,91.2Zm-16.91-2H34.08a1.5,1.5,0,0,0,.05-.42l.08-3.06c-.25-1.08-.53-2.18-.82-3.32h-16l.18,6.36A1.72,1.72,0,0,0,17.57,89.2Z"/></svg>