<svg id="1e4ccb93-c98f-4719-8e64-391ec7fce931" data-name="Calque 2" xmlns="http://www.w3.org/2000/svg" viewBox="0 0 100 100"><title>SBC_picto_3</title><path d="M29.06,31.23A1.51,1.51,0,0,1,28,30.75c-.25-.28-.48-.52-.69-.74-1.79-1.88-2.59-2.89-2.77-7.17-.14-3.11,2-4.82,3.69-6.19,1.25-1,2.33-1.87,2.44-3.07.27-2.72-4.25-4.87-4.3-4.89A1.5,1.5,0,0,1,27.56,6c.27.12,6.53,3,6.05,7.91-.24,2.45-2,3.87-3.55,5.12s-2.64,2.2-2.57,3.73c.14,3.33.49,3.69,1.94,5.22.23.23.47.49.73.78a1.49,1.49,0,0,1-1.1,2.51Z"/><path d="M39.22,32.17a1.51,1.51,0,0,1-1.11-.48c-.25-.28-.48-.52-.69-.74-1.79-1.88-2.59-2.89-2.77-7.17-.13-3.11,2-4.82,3.69-6.19,1.25-1,2.33-1.88,2.44-3.07.23-2.3-3.11-4.35-4.29-4.89A1.5,1.5,0,1,1,37.72,6.9c.27.12,6.53,3,6.05,7.91-.24,2.45-2,3.87-3.55,5.12s-2.64,2.2-2.57,3.72c.14,3.34.49,3.7,1.94,5.23.23.23.47.49.73.78a1.49,1.49,0,0,1-1.1,2.51Z"/><rect x="51.67" y="58.11" width="2.17" height="24.25" rx="1.08" ry="1.08"/><rect x="70.99" y="57.71" width="2.17" height="24.25" rx="1.08" ry="1.08" transform="translate(7.89 -7.31) rotate(6.14)"/><path d="M93.48,17.92a3.86,3.86,0,0,0-4.56,3c-1,5.22-2,10.44-3,15.65-.13.66.08,1.07.55,1.13s.74-.23.86-.86l3-15.36a2.44,2.44,0,1,1,4.76,1q-1.71,8.09-3.39,16.19c-.09.43-.24.58-.7.58H56.42l-.72,0,.62-.77Q67.1,25.37,77.87,12.29a1.55,1.55,0,0,0,.3-1,6.29,6.29,0,0,0-1.52-3.52A7,7,0,0,0,70,5.4a1.42,1.42,0,0,0-.84.45C65.72,10,62.3,14.15,58.86,18.3l-4.14,5c-.91,1.09-1.83,2.18-2.74,3.29q-5,6-9.9,12a1.38,1.38,0,0,1-1.21.58H18.51c-1.44,0-2.88,0-4.32,0-.41,0-.62-.1-.68-.53s-.23-1.14-.35-1.7q-1.54-7.3-3.08-14.6A2.42,2.42,0,0,1,12,19.33a2.46,2.46,0,0,1,2.86,2.17c.45,2.35.91,4.7,1.36,7.06.53,2.76,1.07,5.53,1.61,8.29.13.67.48.95.93.84s.6-.48.48-1.12c-.3-1.57-.61-3.14-.91-4.71-.71-3.67-1.4-7.34-2.14-11a3.85,3.85,0,0,0-4.59-2.93,4,4,0,0,0-2.92,4.94c1.93,8.88,3.78,17.78,5.64,26.68.38,1.81.68,3.64,1.06,5.46s.81,3.63,1.24,5.45a1.32,1.32,0,0,1-.56,1.5c-.73.56-1.47,1.12-2.17,1.73a33.19,33.19,0,0,0-7.12,8.66,23.5,23.5,0,0,0-3.3,9.75,9.91,9.91,0,0,0,1.63,7A12.77,12.77,0,0,0,12.63,94a22.34,22.34,0,0,0,12.52-.61,1.32,1.32,0,0,1,1.23.13,7.18,7.18,0,0,0,3.69,1.08c3.11.06,6.21.1,9.32.13,2.19,0,4.38,0,6.57,0h3.93c1.87,0,3.74,0,5.61,0,1.14,0,2.27-.11,3.41-.11,1.36,0,2.73.1,4.1.1.91,0,1.83-.1,2.74-.1,3,0,6,0,9,0a8,8,0,0,0,5.22-2,9.11,9.11,0,0,0,2.87-5.38c1.83-8.86,3.72-17.7,5.58-26.55q1-4.74,2-9.48c.28-1.33.55-2.66.83-4l5.19-24.56A3.88,3.88,0,0,0,93.48,17.92ZM64.54,40.73h9.65a.92.92,0,0,0-.11.33l-.44,4.06-.78,4.58A1.34,1.34,0,0,0,73,50.89V51a1.34,1.34,0,0,0,0,.2H60.4v0H53.76a1,1,0,0,0,.07-.36V42.91a1.06,1.06,0,0,0-.43-.84,2.17,2.17,0,0,1,1.84-1.4C57.88,40.68,64.55,40.75,64.54,40.73Zm-12.8,10.4h-5.9l5.83-7.07v6.71A1,1,0,0,0,51.74,51.13Zm-11.4-10.4L32.4,50.35c-.18-1-.34-1.84-.48-2.68-.33-1.89-.63-3.78-1-5.66a11.05,11.05,0,0,0-.4-1.28Zm-10.7,0A4.79,4.79,0,0,0,29.5,42c.42,2.64.88,5.28,1.35,7.92a8.68,8.68,0,0,0,.41,1.25h-9.6c.76-.47.51-1,.35-1.61-.66-2.51-1.31-5-2-7.54-.11-.42-.31-.83-.47-1.27ZM16,50.43c-.54-2.7-1.12-5.39-1.69-8.09-.11-.52-.21-1-.33-1.62h5c-.71.49-.47,1-.32,1.6.68,2.58,1.35,5.17,2,7.76a9.64,9.64,0,0,0,.46,1.1H17.56a3.62,3.62,0,0,0-.66,0C16.28,51.29,16.08,51,16,50.43Zm.44,2.25h14a2.32,2.32,0,0,1-.2.36c-1,1.17-1.91,2.35-2.9,3.49a1.25,1.25,0,0,1-.84.39c-1.43,0-2.86-.05-4.3-.05-1,0-2,.05-3,.06a10.39,10.39,0,0,1-1.37-.08c-.13,0-.33-.13-.36-.23C17.07,55.33,16.75,54,16.41,52.68Zm6.28,5.68L18.1,60.48c-.1-.47-.18-.94-.3-1.41s0-.59.47-.58h2.88C21.64,58.48,22.13,58.41,22.69,58.36ZM4.89,84.26A17.07,17.07,0,0,1,6.4,76.38a30.85,30.85,0,0,1,9.82-12.71A45.43,45.43,0,0,1,20.56,61a10.1,10.1,0,0,1,5.16-1.54,2.34,2.34,0,0,0,2.15-1.3c.33-.49.8-.88,1.18-1.34L45.5,36.76c2.62-3.19,5.25-6.35,7.87-9.53,1.09-1.32,2.17-2.65,3.27-4,1-1.15,2-2.27,3-3.43,3.35-4.1,6.71-8.19,10-12.31a1.87,1.87,0,0,1,1.67-.8,5.52,5.52,0,0,1,3,.86l-3.18,3.84-7.72,9.33L60,24.85,32.85,57.6c-.59.72-1.19,1.44-1.79,2.15a.78.78,0,0,0,0,1.17,7.45,7.45,0,0,1,2,5A22.39,22.39,0,0,1,29.72,79,24.65,24.65,0,0,1,16.6,89.82a12,12,0,0,1-6.07.7C7.06,90,5.13,87.8,4.89,84.26Zm20.49,7.47A20.87,20.87,0,0,1,13,92.55c-.34-.09-.67-.2-1-.31v-.15a16.17,16.17,0,0,0,6.11-1.26A26.62,26.62,0,0,0,31.35,79.05a24.42,24.42,0,0,0,3.24-11.24,11.63,11.63,0,0,0-1.2-6.27,3.84,3.84,0,0,0-.5-.74c-.34-.35-.33-.61,0-1q5.37-6.44,10.7-12.91L59.73,27.41l3.3-4L74.87,9.12l.5-.58a4.61,4.61,0,0,1,1.34,2.71c0,.19-.21.45-.37.64q-6.56,8-13.12,15.91L52.84,40.37q-8.6,10.41-17.19,20.82c-.3.37-.49.72-.21,1.18a17.74,17.74,0,0,1,2.33,8A24.24,24.24,0,0,1,35.9,82.25,17.49,17.49,0,0,1,25.38,91.73Zm52.9.36a6.56,6.56,0,0,1-3.57,1c-4.06,0-8.12,0-12.17,0-1,0-2-.1-2.93-.1-1.3,0-2.59.1-3.89.1-1,0-2-.08-3-.1-.51,0-1,.1-1.54.1-1.41,0-2.82,0-4.23,0S44,93,42.53,93c-.52,0-1,.1-1.55.1H30.45a6.36,6.36,0,0,1-2.88-.68c.23-.13.39-.23.55-.31a21.81,21.81,0,0,0,4.57-3,1.79,1.79,0,0,1,1.05-.41c2.17,0,4.34.06,6.52.06,6,0,11.94-.06,17.91-.07,7.33,0,14.66,0,22,0H81A6.63,6.63,0,0,1,78.28,92.09Zm3.16-5.16a.57.57,0,0,1-.36.29,2.4,2.4,0,0,1-.6,0H34.53c.3-.4.52-.65.69-.93.61-1,1.18-2,1.8-3a1,1,0,0,1,.61-.4,11.53,11.53,0,0,1,1.44,0H82.31C82,84.32,81.74,85.63,81.44,86.93ZM86.93,61c-1.38,6.6-2.78,13.19-4.15,19.79-.11.55-.31.73-.89.73q-21.65,0-43.28,0h-.77c.28-1.06.6-2,.81-3,1.08-5.27,1-10.46-1.26-15.44a1.52,1.52,0,0,1,.27-2c.69-.69,1.24-1.51,1.9-2.24a1.15,1.15,0,0,1,.74-.37q12.92,0,25.83,0c2,0,4.05.08,6.08.11H86.58c.22,0,.43,0,.75,0C87.19,59.4,87.1,60.2,86.93,61Zm1.42-6.73c-.14.66-.31,1.31-.41,2s-.26.75-.83.72c-1.31-.06-2.63-.08-3.94-.09-.77,0-1.55.08-2.33.07-1.79,0-3.58-.07-5.37-.07-2.11,0-4.22.07-6.33.08H41.23l-.06-.16c1.09-1.32,2.18-2.65,3.29-4a.8.8,0,0,1,.58-.2q10.44,0,20.87,0c2.2,0,4.41.1,6.61.1,5.09,0,10.18-.07,15.28-.1.25,0,.51,0,.88,0C88.56,53.22,88.46,53.74,88.35,54.26Zm2-9.39c-.4,1.93-.8,3.87-1.22,5.8,0,.19-.29.48-.44.49-1.58,0-3.15,0-4.58,0l-.91,0h-8l1.07-9.86a1.14,1.14,0,0,0-.12-.58h9.75c.71,0,3.85,0,5.33,0Z"/><path d="M41.88,95.19h-2.5q-4.65,0-9.32-.13a7.86,7.86,0,0,1-3.95-1.16.84.84,0,0,0-.8-.08,23,23,0,0,1-12.8.63A13.33,13.33,0,0,1,4.7,89.36,10.2,10.2,0,0,1,3,82.06a23.82,23.82,0,0,1,3.35-10,34,34,0,0,1,7.23-8.8c.72-.62,1.48-1.21,2.2-1.75a.84.84,0,0,0,.38-1c-.43-1.78-.86-3.62-1.25-5.46-.2-.92-.37-1.84-.54-2.77s-.33-1.79-.52-2.69l-.93-4.46C11.37,37.91,9.8,30.37,8.2,23a4.51,4.51,0,0,1,3.29-5.54,4.43,4.43,0,0,1,3.34.62,4.23,4.23,0,0,1,1.85,2.7c.53,2.63,1,5.27,1.54,7.9l1.51,7.81c.25,1.33-.59,1.64-.85,1.71A1.13,1.13,0,0,1,18,38,1.57,1.57,0,0,1,17.34,37c-.44-2.23-.87-4.47-1.3-6.7l-1.67-8.66a2.25,2.25,0,0,0-.92-1.5,1.78,1.78,0,0,0-1.35-.27,2,2,0,0,0-1.28.8,2.22,2.22,0,0,0-.25,1.67q1.1,5.22,2.2,10.44l1,4.67c.09.41.18.81.24,1.23a.84.84,0,0,1,0,.1h.16c1.05,0,2.09,0,3.14,0H40.87a.83.83,0,0,0,.82-.39q4.43-5.42,8.88-10.8l1-1.24c.5-.6,1-1.2,1.49-1.79l7.14-8.63q4.28-5.19,8.57-10.35A1.91,1.91,0,0,1,70,4.9,7.46,7.46,0,0,1,77,7.43a6.7,6.7,0,0,1,1.64,3.8,2,2,0,0,1-.42,1.38Q69.15,23.7,60,34.75l-3.27,4H91l.17,0s0-.05,0-.17q1.68-8.09,3.39-16.18a2,2,0,0,0-1.45-2.53,1.84,1.84,0,0,0-1.41.24,2.3,2.3,0,0,0-.92,1.51q-1.33,6.93-2.68,13.88l-.29,1.47c-.25,1.32-1.15,1.3-1.42,1.27a1.11,1.11,0,0,1-.78-.46,1.53,1.53,0,0,1-.19-1.26L86.09,33c.77-4.05,1.54-8.09,2.34-12.13a4.23,4.23,0,0,1,1.86-2.75A4.39,4.39,0,0,1,97,22.73L87.44,68q-2.06,9.66-4.06,19.33a9.43,9.43,0,0,1-3,5.66,8.48,8.48,0,0,1-5.54,2.09H65.75c-.43,0-.86,0-1.29.05s-.95,0-1.46,0c-.67,0-1.35,0-2,0l-2.07-.05c-.62,0-1.21,0-1.82.06l-1.58.05H41.88ZM25.67,92.74a1.83,1.83,0,0,1,1,.3,6.66,6.66,0,0,0,3.44,1q4.66.09,9.31.13H55.5l1.55-.05q.93,0,1.86-.06t2.1.06c.67,0,1.33,0,2,0,.46,0,.93,0,1.39,0s.9-.05,1.35-.05h9a7.47,7.47,0,0,0,4.9-1.85,8.52,8.52,0,0,0,2.7-5.1q2-9.67,4.06-19.33L96,22.53a3.38,3.38,0,0,0-2.63-4.12h0a3.34,3.34,0,0,0-2.53.49A3.3,3.3,0,0,0,89.41,21c-.8,4-1.57,8.07-2.34,12.11l-.68,3.54a.76.76,0,0,0,0,.49.15.15,0,0,0,.11.05c.06,0,.21,0,.3-.47l.29-1.47q1.33-6.95,2.68-13.88a3.25,3.25,0,0,1,1.35-2.15,2.81,2.81,0,0,1,2.17-.38,2.92,2.92,0,0,1,2.22,3.7q-1.71,8.1-3.39,16.19a1.08,1.08,0,0,1-1.19,1H56.42l-.44,0-1.3-.06,4.55-5.53Q68.36,23.06,77.48,12a1.06,1.06,0,0,0,.19-.65,5.73,5.73,0,0,0-1.4-3.24A6.42,6.42,0,0,0,70.08,5.9a.88.88,0,0,0-.52.27Q65.26,11.33,61,16.52l-7.14,8.63-1.49,1.78-1,1.24Q46.9,33.57,42.46,39a1.87,1.87,0,0,1-1.59.76H17.32c-1,0-2.08,0-3.12,0a1,1,0,0,1-1.19-1c-.06-.39-.14-.77-.23-1.15l-1-4.68q-1.11-5.22-2.2-10.44a3.23,3.23,0,0,1,.4-2.43,2.91,2.91,0,0,1,1.92-1.23,2.71,2.71,0,0,1,2.09.42,3.25,3.25,0,0,1,1.35,2.14L17,30.06q.64,3.35,1.3,6.69a.73.73,0,0,0,.2.45s0,0,.12,0,.2-.05.11-.55l-1.51-7.81c-.51-2.63-1-5.26-1.54-7.89a3.23,3.23,0,0,0-1.41-2.06,3.44,3.44,0,0,0-2.59-.48,3.53,3.53,0,0,0-2.53,4.35c1.61,7.4,3.18,14.93,4.71,22.21l.93,4.47c.19.9.36,1.81.53,2.71s.34,1.83.53,2.74c.38,1.83.82,3.67,1.24,5.44a1.83,1.83,0,0,1-.74,2c-.71.54-1.46,1.11-2.15,1.71a33.09,33.09,0,0,0-7,8.54A23,23,0,0,0,4,82.14,9.32,9.32,0,0,0,5.5,88.76a12.42,12.42,0,0,0,7.25,4.71A21.74,21.74,0,0,0,25,92.86,2.11,2.11,0,0,1,25.67,92.74Zm23.18.9H46.92c-.72,0-1.44,0-2.16-.06l-2.24,0a6,6,0,0,0-.74,0,7.16,7.16,0,0,1-.8.05H30.45a6.83,6.83,0,0,1-3.1-.73l-.84-.41,1-.59.36-.21a21.43,21.43,0,0,0,4.48-3,2.24,2.24,0,0,1,1.37-.53c1.14,0,2.27,0,3.41,0s2.07,0,3.1,0l8.85,0,9.07,0H81.75l-.26.68a7.2,7.2,0,0,1-2.94,3.67h0a7.09,7.09,0,0,1-3.84,1.12c-4.06,0-8.12,0-12.18,0-.48,0-1,0-1.44-.05l-1.48,0c-.64,0-1.29,0-1.93,0s-1.3.05-2,.05-1.12,0-1.67-.05l-1.36,0-.76,0a6.81,6.81,0,0,1-.78.05Zm-6.36-1.12h0l2.26,0c.71,0,1.43.05,2.14.06,1.41,0,2.82,0,4.22,0,.23,0,.46,0,.69,0s.58,0,.87-.06l1.39,0c.54,0,1.08.06,1.62.05s1.28,0,1.92-.05,1.31,0,2,0,1,0,1.53,0,.93.05,1.4.05c4.05,0,8.11,0,12.17,0a6.14,6.14,0,0,0,3.3-1h0a6.08,6.08,0,0,0,2.26-2.51H58.18c-3,0-6,0-9.08,0l-8.84,0c-1,0-2.09,0-3.13,0s-2.25,0-3.38,0a1.29,1.29,0,0,0-.73.29,23.24,23.24,0,0,1-4.28,2.91,5.94,5.94,0,0,0,1.71.25H41c.23,0,.46,0,.7,0A7.36,7.36,0,0,1,42.49,92.52ZM17.8,93.64a20.35,20.35,0,0,1-5-.61c-.25-.06-.49-.13-.73-.21l-.71-.22.09-1H12a15.72,15.72,0,0,0,5.92-1.22,26.15,26.15,0,0,0,13-11.57,23.84,23.84,0,0,0,3.18-11,11.21,11.21,0,0,0-1.14-6,3,3,0,0,0-.42-.63,1.12,1.12,0,0,1,0-1.67c2.86-3.42,5.69-6.85,8.53-10.28L74.49,8.8l.32-.38.54-.61.38.37a5.23,5.23,0,0,1,1.48,3,1.3,1.3,0,0,1-.43,1L65.33,26,49,45.77,36,61.51c-.3.36-.26.45-.17.6a18,18,0,0,1,2.4,8.21,24.81,24.81,0,0,1-1.91,12.13,18.11,18.11,0,0,1-10.8,9.75h0A22.25,22.25,0,0,1,17.8,93.64Zm-3.26-1.28a20.61,20.61,0,0,0,10.67-1.1h0a16.88,16.88,0,0,0,10.23-9.21A23.48,23.48,0,0,0,37.27,70.4,17,17,0,0,0,35,62.63a1.43,1.43,0,0,1,.26-1.76l13-15.74,16.3-19.75L76,11.58l.26-.33a4.24,4.24,0,0,0-.83-1.95l-.12.14L41.8,49.84Q37.54,55,33.27,60.12a.54.54,0,0,0-.13.2.5.5,0,0,0,.11.14,4.09,4.09,0,0,1,.57.83,12.2,12.2,0,0,1,1.27,6.54,24.85,24.85,0,0,1-3.31,11.46,27.08,27.08,0,0,1-13.53,12A17.37,17.37,0,0,1,14.54,92.36ZM76.22,11.22Zm-64,79.94A11,11,0,0,1,10.45,91c-3.7-.61-5.8-2.94-6.06-6.73h0a17.64,17.64,0,0,1,1.55-8.1,31.28,31.28,0,0,1,10-12.91,27.88,27.88,0,0,1,3.26-2.06l1.13-.65A10.49,10.49,0,0,1,25.68,59h.06a1.86,1.86,0,0,0,1.71-1.08A5.8,5.8,0,0,1,28.2,57c.16-.17.32-.33.46-.51l7.88-9.6,8.58-10.46c1.74-2.13,3.49-4.24,5.24-6.36L54,25.62c.74-.89,1.47-1.79,2.22-2.67.42-.51.86-1,1.3-1.51s1.1-1.27,1.64-1.92c3-3.7,6.56-8,10-12.31a2.41,2.41,0,0,1,2.07-1,6.06,6.06,0,0,1,3.23.93l.48.31L33.16,58l-1.71,2.06c-.21.25-.17.35,0,.5a8,8,0,0,1,2.18,5.28,23,23,0,0,1-3.47,13.37A25.24,25.24,0,0,1,16.77,90.29,13.64,13.64,0,0,1,12.18,91.16ZM5.39,84.22c.23,3.32,2,5.28,5.22,5.81a11.64,11.64,0,0,0,5.82-.68A24.24,24.24,0,0,0,29.29,78.71a22,22,0,0,0,3.33-12.8,6.9,6.9,0,0,0-1.9-4.64,1.27,1.27,0,0,1,0-1.84l1.71-2,.08-.1,41-49.55a5.23,5.23,0,0,0-2.23-.5A1.34,1.34,0,0,0,70,7.84c-3.47,4.3-7,8.61-10,12.31-.54.66-1.1,1.3-1.66,2-.43.49-.87,1-1.29,1.49l-2.21,2.67-3.68,4.46q-2.62,3.16-5.24,6.35L37.31,47.54l-7.87,9.6a6.89,6.89,0,0,1-.52.56,5.27,5.27,0,0,0-.63.74A2.81,2.81,0,0,1,25.72,60a9.46,9.46,0,0,0-4.91,1.48l-1.14.65a28.29,28.29,0,0,0-3.15,2,30.45,30.45,0,0,0-9.66,12.5,16.64,16.64,0,0,0-1.47,7.65Zm75.44,3.53H33.53l.6-.8.29-.38a4.78,4.78,0,0,0,.38-.51l.69-1.16c.36-.61.72-1.22,1.1-1.82a1.5,1.5,0,0,1,1-.63,8,8,0,0,1,1.09,0H82.93l-.32,1.48C82.38,85,82.16,86,81.93,87a1,1,0,0,1-.72.66A1.28,1.28,0,0,1,80.83,87.75Zm.12-.94Zm-45.41-.07H80.68a1.11,1.11,0,0,0,.26,0h0c.23-1,.44-2,.66-3l.06-.27h-43a5.8,5.8,0,0,0-.94,0,.46.46,0,0,0-.26.17c-.38.58-.73,1.18-1.09,1.78-.23.4-.46.79-.7,1.18A1.63,1.63,0,0,1,35.54,86.74ZM81.89,82h0q-18.56,0-37.1,0h-7.6l.17-.62c.09-.35.18-.68.28-1,.2-.69.38-1.35.52-2,1.17-5.71.77-10.66-1.23-15.14a2,2,0,0,1,.38-2.56,15.12,15.12,0,0,0,1.08-1.26c.26-.32.52-.65.79-1a1.62,1.62,0,0,1,1.12-.54q12.92,0,25.83,0c1.2,0,2.4,0,3.6.06l2.49.05H86.58l.49,0,.85.05-.09.55c0,.28-.09.55-.13.82-.08.57-.16,1.12-.28,1.66l-1.7,8.09Q84.49,75,83.27,80.88A1.24,1.24,0,0,1,81.89,82ZM51,81l30.9,0c.33,0,.33,0,.4-.33q1.21-5.85,2.45-11.7l1.7-8.09c.11-.52.19-1.06.27-1.61,0-.09,0-.19.05-.28H72.2l-2.49-.05c-1.19,0-2.39-.06-3.58-.06q-12.91,0-25.83,0a.65.65,0,0,0-.37.21c-.27.29-.51.6-.76.91A14.55,14.55,0,0,1,38,61.36c-.46.45-.49.72-.16,1.45,2.08,4.67,2.5,9.82,1.29,15.74-.15.7-.34,1.37-.54,2.08,0,.12-.07.24-.1.36H51ZM17.74,61.2l-.22-1.06c-.06-.32-.12-.63-.2-.94a1,1,0,0,1,.12-.89,1,1,0,0,1,.84-.32c.95,0,1.9,0,2.86,0a8.37,8.37,0,0,0,1-.07l3.35-.28ZM18.3,59c.06.26.11.51.17.77L20.12,59Zm68.89-1.54h-.11c-1.34-.07-2.72-.08-3.91-.09L82,57.4c-.4,0-.79,0-1.19,0-.81,0-1.61,0-2.41,0l-3,0-3.17,0-3.16,0H40.9l-.24-.59.12-.39.73-.88c.85-1,1.7-2.06,2.57-3.08a1.33,1.33,0,0,1,1-.37q10.44,0,20.87,0c1,0,2.09,0,3.14,0s2.31,0,3.47,0c3.58,0,7.15,0,10.73-.07l5.1,0h.94l-.23,1.16c-.08.37-.15.72-.22,1.07h0l-.15.66c-.09.43-.19.85-.25,1.28A1.15,1.15,0,0,1,87.19,57.45Zm-4.08-1.09h.06c1.2,0,2.59,0,4,.09a.5.5,0,0,0,.24,0,.72.72,0,0,0,.08-.27,12.58,12.58,0,0,1,.27-1.36c0-.22.1-.43.14-.64h0l.21-1-4.81,0c-3.58,0-7.16.06-10.74.07-1.15,0-2.33,0-3.49,0s-2.08,0-3.13,0q-10.43,0-20.86,0a.52.52,0,0,0-.23,0c-.84,1-1.68,2-2.53,3l-.18.22h27l3.14,0,3.25,0c1,0,1.94,0,2.91,0l2.4,0c.39,0,.77,0,1.15,0S82.74,56.36,83.11,56.36Zm-64,1.07a11.86,11.86,0,0,1-1.35-.09.93.93,0,0,1-.78-.59c-.28-1-.53-2-.8-3.08l-.38-1.49H31.21l-.46.86a1.58,1.58,0,0,1-.19.32l-.57.69c-.77,1-1.54,1.89-2.34,2.81a1.79,1.79,0,0,1-1.22.56c-.81,0-1.63,0-2.45,0l-1.85,0c-.55,0-1.08,0-1.62,0l-1.36,0Zm-1.21-1.09a9.29,9.29,0,0,0,1.28.09c.45,0,.89,0,1.34,0s1.11,0,1.66,0l1.86,0c.81,0,1.62,0,2.42,0a.82.82,0,0,0,.48-.22c.79-.91,1.55-1.84,2.32-2.78l.19-.24H17.05l.06.25Q17.49,54.92,17.86,56.34Zm-1.19-4.63c-.63,0-1-.4-1.19-1.18h0c-.39-1.94-.8-3.88-1.21-5.82l-.93-4.49H41.4L32.1,51.5l-.36-2c-.11-.62-.22-1.19-.31-1.76l-.33-1.93c-.21-1.24-.42-2.49-.65-3.73a4.12,4.12,0,0,0-.23-.79L30.1,41a2.56,2.56,0,0,1-.05.27,2.2,2.2,0,0,0-.06.64c.38,2.34.81,4.86,1.35,7.91a4.4,4.4,0,0,0,.24.76c.06.14.11.28.16.42l.22.66H21.87l0,0H17.33a2,2,0,0,0-.35,0Zm-.21-1.38c.08.41.11.41.35.36a3.62,3.62,0,0,1,.56,0h3a2.64,2.64,0,0,1-.17-.47c-.44-1.65-.87-3.3-1.31-5l-.77-3a2.21,2.21,0,0,1-.1-1.08H14.56l.69,3.29c.41,1.94.82,3.88,1.21,5.82Zm2.73-9.17c-.29.22-.26.37-.12.87l.78,3c.43,1.65.86,3.29,1.3,4.94a4.11,4.11,0,0,0,.27.65l0,.08c.27-.19.26-.34.12-.86l-.89-3.37-1.14-4.33c-.08-.27-.18-.53-.29-.8Zm3.45,9.48h7.91a3.47,3.47,0,0,1-.19-.67c-.55-3-1-5.57-1.36-7.92a2.56,2.56,0,0,1,0-.83H20.3a6,6,0,0,1,.21.64c.39,1.45.77,2.89,1.15,4.34l.88,3.35A2.25,2.25,0,0,1,22.64,50.64Zm8.61-9.41a3.9,3.9,0,0,1,.19.69c.22,1.25.44,2.5.65,3.75l.32,1.92c.09.52.19,1,.29,1.61l6.58-8ZM86,51.68H85l-1.86,0H74.62l1.12-10.42a.54.54,0,0,0-.07-.3l-.35-.72H91.81l-1.28,6.13c-.31,1.48-.62,3-1,4.43a1.16,1.16,0,0,1-.91.88C87.77,51.68,86.88,51.68,86,51.68Zm-10.28-1,9.28,0c1.14,0,2.33,0,3.53,0a.34.34,0,0,0,.07-.11c.32-1.46.63-2.93.94-4.4l1-4.93H76.74a.53.53,0,0,1,0,.13Zm-2.15,1-20.53,0,.24-.67a.54.54,0,0,0,0-.19V42.92a.57.57,0,0,0-.23-.45l-.29-.23.13-.34a2.64,2.64,0,0,1,2.3-1.73l5.38,0c1.52,0,3.07,0,3.66,0H75l-.33.71a.44.44,0,0,0-.06.17l-.44,4.06c-.19,1.12-.38,2.21-.56,3.3l-.23,1.32c-.07.44-.08.61.06.78l.13.16,0,.21Zm-12.68-1H72.35a2.19,2.19,0,0,1,0-1l.23-1.37c.19-1.09.37-2.18.56-3.26l.41-3.81-9,0c-.44,0-1.44,0-3.93,0l-5.37,0A1.61,1.61,0,0,0,54,42a1.55,1.55,0,0,1,.32,1v7.71Zm-8.45,1H44.78l7.39-9v8.1a.54.54,0,0,0,0,.19Zm-5.55-1h4.27V45.45Z"/></svg>