<svg id="f1a023fb-4283-4db4-a053-2e964f2715e4" data-name="Calque 2" xmlns="http://www.w3.org/2000/svg" viewBox="0 0 100 100"><title>SBC_picto_2</title><path d="M24.13,86.36h-.07a1.31,1.31,0,0,1-1.25-1.11,17.59,17.59,0,0,0-2-2.24,20.5,20.5,0,0,1-4.34-6.78c-.26-.61-.5-1.24-.72-1.87a32,32,0,0,1-1.66-7.16,11.27,11.27,0,0,0-1.52-3.82c-1.28-2.4-3-5.69.14-8.33,1.32-1.1,2.39-1.95,3.47-2.75.45-.33.92-.67,1.4-1a43.14,43.14,0,0,1,6.11-3.54c.23-.11.48-.23.73-.37l.28-.15h.33l.56,0a13,13,0,0,0,4.26-1.66,38.87,38.87,0,0,0,6.63-4.8,13.52,13.52,0,0,1,2-1.3l.3-.17c.82-.49,1.94-1.16,3-1.89l2-1.39v2.9a7.19,7.19,0,0,0,1.11,4.32h0a2.33,2.33,0,0,0,.84.67,2.56,2.56,0,0,0,.68.21l1.23.21-.2,1.23a38.54,38.54,0,0,1-1,4.57c-1.74,5.84-4.73,10.31-7.91,15-1.62,2.41-3.29,4.91-5,7.76-1.1,1.87-2,3.38-2.87,4.75l-.28.45C29.1,80,28,81.7,26.84,83.22l-1.1,1.52a2,2,0,0,0-.29.58A1.36,1.36,0,0,1,24.13,86.36Zm-1.21-1h0Zm2.46-35.66-.59.3A38.2,38.2,0,0,0,19,53.36c-.46.32-.9.63-1.33,1-1,.77-2.08,1.59-3.36,2.66-1.46,1.21-1,2.53.47,5.24a13.2,13.2,0,0,1,1.8,4.73,28.56,28.56,0,0,0,1.53,6.59c.2.58.42,1.16.66,1.72a18.16,18.16,0,0,0,3.77,6,19.64,19.64,0,0,1,1.48,1.58l.77-1.05c1.08-1.48,2.19-3.1,3.39-5l.28-.45c.84-1.34,1.74-2.83,2.83-4.68,1.71-2.92,3.41-5.44,5.05-7.88,3.19-4.76,6-8.87,7.58-14.36.31-1,.57-2.09.79-3.19l-.13-.05a5,5,0,0,1-1.7-1.36,7.88,7.88,0,0,1-1.55-4.14l-1.59,1-.3.17a14.44,14.44,0,0,0-1.26.8,40.39,40.39,0,0,1-7.11,5.15,14.84,14.84,0,0,1-5.15,2A4,4,0,0,1,25.38,49.73Z"/><path d="M74.87,48.09A5.64,5.64,0,0,1,74,48a14,14,0,0,1-4.29-1.72,39,39,0,0,1-6.8-4.92,15.19,15.19,0,0,0-1.84-1.18,40.87,40.87,0,0,1-4.48-3l-.4-.31-.06-.51a14.44,14.44,0,0,0-.43-2.12l-.06-.2v-.28L55,32.63A5.73,5.73,0,0,0,54,31.11a3.83,3.83,0,0,0-.8-.62l-1-.58.48-1a13.55,13.55,0,0,1,1.15-2,28.69,28.69,0,0,1,7.64-7A38.31,38.31,0,0,1,74,14.31,15.67,15.67,0,0,1,77.19,14c1.17,0,3-.06,4.85-.15l.93,0c1.8-.08,3.86-.17,5.55-.13,2.43,0,4.19,2.5,5.38,7.49a71,71,0,0,1,1.41,10.74c.07,1,.23,2.2.4,3.45l0,.12-1.24.17,1.24-.15c.48,3.48,1,7.09,0,9.06-.36.71-1.09,1.37-6.35,2.23-1.76.29-3.86.55-6.22.78-3.31.31-6.37.49-8.13.55ZM58.52,35.58A44.37,44.37,0,0,0,62.34,38a14.72,14.72,0,0,1,2.27,1.5,36.43,36.43,0,0,0,6.31,4.57,12.13,12.13,0,0,0,3.49,1.44,3.56,3.56,0,0,0,.52,0c1.73-.06,4.73-.23,8-.54,2.31-.22,4.35-.48,6.06-.76a20.07,20.07,0,0,0,4.6-1.07c.51-1.41,0-4.86-.31-7.41l0-.13c-.18-1.3-.35-2.52-.43-3.62a67.22,67.22,0,0,0-1.35-10.34c-1.21-5.14-2.59-5.57-3-5.57-1.61,0-3.62.05-5.38.13l-.93,0c-1.94.09-3.76.18-5,.15a12.4,12.4,0,0,0-2.68.29A35.85,35.85,0,0,0,62.83,22a26.3,26.3,0,0,0-7,6.38c-.16.24-.31.48-.45.71l.3.29a6.89,6.89,0,0,1,.67.75,10.64,10.64,0,0,1,3.94-2.22,27.18,27.18,0,0,1,6.7-.39l2.24.05-.1,4.15-2.23-.05a24.08,24.08,0,0,0-5.71.29,7.27,7.27,0,0,0-2.29,1.46,7.8,7.8,0,0,0-.71.7C58.34,34.55,58.44,35.06,58.52,35.58Z"/><path d="M25.13,48.09H25c-1.76-.06-4.82-.24-8.13-.55-2.36-.23-4.46-.49-6.23-.78-5.26-.86-6-1.52-6.34-2.23-1-2-.49-5.57,0-9.05l0-.17c.17-1.24.33-2.42.4-3.43A71.2,71.2,0,0,1,6.1,21.14c1.19-5,3-7.44,5.38-7.49,1.69,0,3.75,0,5.54.13l.94,0c1.89.09,3.68.17,4.85.15a15.07,15.07,0,0,1,3.24.34,38.4,38.4,0,0,1,12.5,5.56l1.27.84,0,0a26.83,26.83,0,0,1,6.39,6.17,13,13,0,0,1,1.15,2l.48,1-1,.58a3.83,3.83,0,0,0-.8.62A5.73,5.73,0,0,0,45,32.63l-.6,1.18v.29l-.06.19a14.18,14.18,0,0,0-.43,2.12l-.06.51-.4.31a40.37,40.37,0,0,1-4.48,3,15.21,15.21,0,0,0-1.84,1.18,39,39,0,0,1-6.8,4.92A14,14,0,0,1,26,48,5.41,5.41,0,0,1,25.13,48.09ZM6.43,43.22A20.07,20.07,0,0,0,11,44.29c1.71.28,3.75.54,6.06.76h0c3.25.31,6.25.48,8,.54a3.59,3.59,0,0,0,.53,0,12.13,12.13,0,0,0,3.49-1.44,36.43,36.43,0,0,0,6.31-4.57A14.77,14.77,0,0,1,37.66,38a42.51,42.51,0,0,0,3.81-2.46c.09-.52.19-1,.31-1.51a7.8,7.8,0,0,0-.71-.7,7.38,7.38,0,0,0-2.28-1.46,24.13,24.13,0,0,0-5.71-.29l-2.24.05-.1-4.15L33,27.47a27.23,27.23,0,0,1,6.71.39,10.64,10.64,0,0,1,3.94,2.22,8,8,0,0,1,.66-.75l.31-.29c-.14-.23-.29-.47-.45-.71a26.3,26.3,0,0,0-7-6.38l-.34-.22a35.4,35.4,0,0,0-11.29-5,11.8,11.8,0,0,0-2.68-.29c-1.25,0-3.08-.06-5-.15l-.93,0c-1.76-.08-3.77-.16-5.38-.13-.4,0-1.78.43-3,5.57A67.37,67.37,0,0,0,7.19,32.06c-.08,1.09-.25,2.31-.42,3.59l0,.14C6.39,38.36,5.92,41.81,6.43,43.22Z"/><path d="M75.87,86.36a1.36,1.36,0,0,1-1.32-1,1.85,1.85,0,0,0-.3-.58c-.28-.4-.63-.89-1.09-1.52C72,81.7,70.9,80,69.67,78.1l-.28-.45c-.85-1.36-1.76-2.86-2.87-4.75-1.68-2.86-3.36-5.35-5-7.76-3.32-4.93-6.18-9.19-7.91-15a39,39,0,0,1-1-4.57l-.2-1.23,1.23-.21a2.56,2.56,0,0,0,.68-.21,2.33,2.33,0,0,0,.84-.67,7.2,7.2,0,0,0,1.11-4.33l0-2.81,2,1.31c1.06.75,2.18,1.41,3,1.93l.24.13a12.49,12.49,0,0,1,2,1.3,38.87,38.87,0,0,0,6.63,4.8,12.79,12.79,0,0,0,4.25,1.65,3.91,3.91,0,0,0,.57,0h.33l.28.15c.25.14.5.26.73.37a43.14,43.14,0,0,1,6.11,3.54l1.4,1c1.4,1,2.65,2.06,3.47,2.75h0c3.17,2.64,1.42,5.93.14,8.33a11.27,11.27,0,0,0-1.52,3.82,31.84,31.84,0,0,1-1.66,7.16c-.22.63-.46,1.26-.72,1.87A20.66,20.66,0,0,1,79.15,83a18.86,18.86,0,0,0-2,2.24,1.29,1.29,0,0,1-1.24,1.11Zm1.21-1ZM55.25,46.2c.22,1.1.48,2.15.79,3.19,1.62,5.48,4.38,9.6,7.58,14.36,1.56,2.32,3.33,5,5.05,7.88,1.1,1.87,2,3.35,2.83,4.68l.29.45c1.19,1.87,2.3,3.5,3.38,5l.77,1.05a19.64,19.64,0,0,1,1.48-1.58,18.16,18.16,0,0,0,3.77-6c.23-.56.46-1.14.66-1.72a29.09,29.09,0,0,0,1.53-6.59,13.2,13.2,0,0,1,1.8-4.73c1.45-2.71,1.93-4,.47-5.24h0c-1.28-1.07-2.32-1.89-3.36-2.66-.43-.32-.87-.63-1.33-1A38.2,38.2,0,0,0,75.21,50l-.59-.3a3.9,3.9,0,0,1-.58,0,14.84,14.84,0,0,1-5.15-2,40.37,40.37,0,0,1-7.12-5.16,13,13,0,0,0-1.25-.79l-.3-.17-1.59-1a8,8,0,0,1-1.55,4.14,5,5,0,0,1-1.71,1.36Z"/><path d="M50.73,45.34l-1,0c-1.94-.07-4.12-.4-5.51-2.24a7,7,0,0,1-1.26-4.16,15.63,15.63,0,0,1,.87-5.73L44,32.6a6.06,6.06,0,0,1,2.44-2.87l.34-.17a6.82,6.82,0,0,1,2.94-.27l.26,0,.26,0a6.82,6.82,0,0,1,2.94.27h0l.29.17A6,6,0,0,1,56,32.61c.08.18.16.38.24.58a15.58,15.58,0,0,1,.87,5.71A9.07,9.07,0,0,1,55.89,43h0C54.57,45.05,52.46,45.34,50.73,45.34ZM47.65,31.93a3.63,3.63,0,0,0-1.35,1.71l-.18.43a13,13,0,0,0-.71,4.78,4.74,4.74,0,0,0,.75,2.72c.61.82,1.66,1.18,3.62,1.25,2.16.08,3.3-.07,4-1.16a6.66,6.66,0,0,0,.81-2.9,12.93,12.93,0,0,0-.72-4.68l-.18-.44a3.73,3.73,0,0,0-1.34-1.71l-.06,0a4.09,4.09,0,0,0-1.8-.12l-.33,0-.17,0-.17,0-.33,0a4.23,4.23,0,0,0-1.79.11Z"/></svg>