<svg id="52e518c5-9a46-4338-87bb-65c6900e9ecb" data-name="Calque 2" xmlns="http://www.w3.org/2000/svg" viewBox="0 0 100 100"><title>SBC_picto_1</title><path d="M50,73.32a1.62,1.62,0,0,1-1.15-.51C40.21,64.2,36,54.89,36.26,45.14c.45-16.12,13-27.48,13.51-27.95a1.49,1.49,0,0,1,2.06.06c12.11,12.11,12.69,25,11,33.65-2,10.36-7.57,18.17-10.26,20.86C52.12,72.24,51,73.32,50,73.32Zm1-2.63h0Zm-.2-50.26c-2.93,3-11.15,12.6-11.48,24.82C39,53.85,42.7,62.15,50.2,69.94c2.26-2,8.23-10.16,9.91-20.72S58.66,28.86,50.74,20.43Z"/><path d="M46.67,80.11a1.58,1.58,0,0,1-.52-.09C34.59,76.19,26.64,69.76,22.51,60.93c-6.82-14.61-.73-30.38-.46-31A1.51,1.51,0,0,1,23.91,29C41.56,34.87,47.62,47.53,49.6,57.12c2.15,10.41.14,20.83-1.76,22.52A1.73,1.73,0,0,1,46.67,80.11Zm.43-2.93h0ZM24.37,32.35c-1.26,4-4.31,16.26.87,27.33,3.65,7.8,10.66,13.56,20.86,17.15,1.11-2.82,2.8-12.76-.44-23S35.23,36.33,24.37,32.35Z"/><path d="M36.52,83.13a32.23,32.23,0,0,1-15.78-3.92C6.61,71.46,2.2,55.14,2,54.45a1.51,1.51,0,0,1,1-1.81c16.31-5.26,28,.1,35,5.52,8.32,6.48,12.72,15,13.89,18.64.28.89,1,3.25-.79,3.85A47.82,47.82,0,0,1,36.52,83.13ZM5.36,55.06c1.36,4,6.12,15.67,16.85,21.54,7.55,4.13,16.61,4.63,27,1.51-.78-2.94-5.28-12-13.92-18.27S16.47,51.86,5.36,55.06Z"/><path d="M53.33,80.17a1.73,1.73,0,0,1-1.17-.47C50.26,78,48.25,67.59,50.4,57.18c2-9.59,8-22.25,25.69-28.1A1.49,1.49,0,0,1,78,30c.27.66,6.36,16.43-.46,31-4.13,8.84-12.08,15.26-23.64,19.1A1.88,1.88,0,0,1,53.33,80.17Zm.9-2.63h0Zm21.4-45.13c-10.86,4-18,11.22-21.29,21.53s-1.55,20.13-.44,23c10.2-3.59,17.21-9.36,20.86-17.16C80,48.67,76.89,36.44,75.63,32.41Z"/><path d="M63.48,83.19A47.82,47.82,0,0,1,48.9,80.71c-1.84-.6-1.07-2.95-.79-3.84C49.28,73.25,53.68,64.7,62,58.22c7-5.42,18.68-10.78,35-5.52a1.51,1.51,0,0,1,1,1.81c-.18.69-4.59,17-18.72,24.77A32.33,32.33,0,0,1,63.48,83.19Zm-12.65-5c10.36,3.13,19.43,2.62,27-1.52,10.73-5.89,15.47-17.54,16.82-21.53-11.11-3.2-21.16-1.6-29.89,4.78S51.61,75.23,50.83,78.17Z"/></svg>